<svg width="30" height="30" viewBox="0 0 30 30" fill="none" xmlns="http://www.w3.org/2000/svg">
<path d="M19.9029 14.25C19.9029 15.165 19.1314 15.915 18.1543 15.915C17.1943 15.915 16.4057 15.165 16.4057 14.25C16.4057 13.335 17.1771 12.585 18.1543 12.585C19.1314 12.585 19.9029 13.335 19.9029 14.25ZM11.8971 12.585C10.92 12.585 10.1486 13.335 10.1486 14.25C10.1486 15.165 10.9371 15.915 11.8971 15.915C12.8743 15.915 13.6457 15.165 13.6457 14.25C13.6629 13.335 12.8743 12.585 11.8971 12.585ZM30 3.09V30C25.6812 26.6605 27.0624 27.7659 22.0457 23.685L22.9543 26.46H3.51429C1.57714 26.46 0 25.08 0 23.37V3.09C0 1.38 1.57714 0 3.51429 0H26.4857C28.4229 0 30 1.38 30 3.09ZM25.1143 17.31C25.1143 12.48 22.6457 8.565 22.6457 8.565C20.1771 6.945 17.8286 6.99 17.8286 6.99L17.5886 7.23C20.5029 8.01 21.8571 9.135 21.8571 9.135C17.785 7.18213 13.0015 7.18178 9.05143 8.7C8.41714 8.955 8.04 9.135 8.04 9.135C8.04 9.135 9.46286 7.95 12.5486 7.17L12.3771 6.99C12.3771 6.99 10.0286 6.945 7.56 8.565C7.56 8.565 5.09143 12.48 5.09143 17.31C5.09143 17.31 6.53143 19.485 10.32 19.59C10.32 19.59 10.9543 18.915 11.4686 18.345C9.29143 17.775 8.46857 16.575 8.46857 16.575C8.72076 16.7295 9.13661 16.9297 9.17143 16.95C12.065 18.3679 16.1751 18.8324 19.8686 17.475C20.4686 17.28 21.1371 16.995 21.84 16.59C21.84 16.59 20.9829 17.82 18.7371 18.375C19.2514 18.945 19.8686 19.59 19.8686 19.59C23.6571 19.485 25.1143 17.31 25.1143 17.31Z" fill="white"/>
</svg>
