<svg width="1224" height="777" viewBox="0 0 1224 777" fill="none" xmlns="http://www.w3.org/2000/svg">
<path d="M1194.94 488.555H1151.9C1150.98 488.556 1150.08 488.364 1149.25 487.993C1148.42 487.621 1147.69 487.079 1147.12 486.408C1146.56 485.755 1146.16 484.99 1145.96 484.173C1145.75 483.355 1145.75 482.505 1145.95 481.687C1150 465.068 1149.8 447.798 1145.39 431.262C1145.04 429.997 1145.18 428.661 1145.78 427.481C1146.38 426.302 1147.4 425.352 1148.66 424.794C1166.64 416.957 1183.15 417.161 1197.73 425.4C1198.49 425.826 1199.15 426.402 1199.65 427.088C1200.15 427.774 1200.48 428.553 1200.63 429.372C1203.72 447.35 1203.84 465.663 1200.98 483.675C1200.77 485.03 1200.05 486.272 1198.94 487.169C1197.83 488.066 1196.41 488.558 1194.94 488.555Z" fill="#F17D24"/>
<path d="M1194.29 462.292H1161.38C1160.56 462.29 1159.78 461.986 1159.2 461.447C1158.63 460.908 1158.3 460.178 1158.3 459.416C1158.3 458.655 1158.63 457.924 1159.2 457.385C1159.78 456.846 1160.56 456.543 1161.38 456.541H1194.29C1195.11 456.543 1195.89 456.846 1196.47 457.385C1197.04 457.924 1197.37 458.655 1197.37 459.416C1197.37 460.178 1197.04 460.908 1196.47 461.447C1195.89 461.986 1195.11 462.29 1194.29 462.292Z" fill="white"/>
<path d="M1194.29 452.208H1161.38C1160.56 452.206 1159.78 451.903 1159.2 451.363C1158.63 450.824 1158.3 450.094 1158.3 449.332C1158.3 448.571 1158.63 447.84 1159.2 447.301C1159.78 446.762 1160.56 446.459 1161.38 446.457H1194.29C1195.11 446.459 1195.89 446.762 1196.47 447.301C1197.04 447.84 1197.37 448.571 1197.37 449.332C1197.37 450.094 1197.04 450.824 1196.47 451.363C1195.89 451.903 1195.11 452.206 1194.29 452.208Z" fill="white"/>
<path d="M333.092 484.536C459.396 484.536 561.785 389.162 561.785 271.512C561.785 153.861 459.396 58.4868 333.092 58.4868C206.788 58.4868 104.398 153.861 104.398 271.512C104.398 389.162 206.788 484.536 333.092 484.536Z" fill="#F2F2F2"/>
<path d="M598.322 478.234C622.238 478.234 641.625 460.175 641.625 437.898C641.625 415.621 622.238 397.562 598.322 397.562C574.407 397.562 555.019 415.621 555.019 437.898C555.019 460.175 574.407 478.234 598.322 478.234Z" fill="#F2F2F2"/>
<path d="M816.19 568.99C825.906 568.99 833.782 561.653 833.782 552.603C833.782 543.553 825.906 536.217 816.19 536.217C806.474 536.217 798.598 543.553 798.598 552.603C798.598 561.653 806.474 568.99 816.19 568.99Z" fill="#F2F2F2"/>
<path d="M952.018 617.054C944.599 564.249 909.08 512.388 854.855 495.513C876.567 549.78 876.972 609.452 855.999 663.971C847.829 684.97 836.395 707.532 844.36 728.599C849.317 741.707 861.289 751.687 874.639 757.893C887.989 764.098 902.777 767.005 917.38 769.854L920.265 772.048C943.081 723.217 959.436 669.859 952.018 617.054Z" fill="#F2F2F2"/>
<path d="M854.325 496.516C886.06 529.214 905.928 570.396 911.107 614.212C912.155 623.605 912.34 633.218 910.198 642.496C908.036 651.524 903.317 659.848 896.533 666.604C890.343 673.02 883.214 678.916 878.806 686.623C874.161 694.746 874.043 703.945 877.321 712.525C881.331 723.022 889.151 731.551 897.11 739.644C905.947 748.63 915.278 757.833 919.091 769.794C919.553 771.243 921.94 770.49 921.478 769.044C914.846 748.235 893.039 736.523 882.549 717.808C877.654 709.075 875.555 698.915 880.024 689.64C883.931 681.528 891.278 675.442 897.605 668.996C904.249 662.226 909.328 654.813 911.91 645.887C914.55 636.757 914.768 627.117 913.982 617.74C912.031 596.489 906.504 575.656 897.605 556.004C887.581 533.523 873.504 512.804 855.98 494.745C854.895 493.628 853.247 495.405 854.325 496.516H854.325Z" fill="white"/>
<path d="M910.331 600.012C918.105 598.205 924.936 593.882 929.605 587.816C934.273 581.751 936.475 574.337 935.817 566.898C935.678 565.394 933.161 565.524 933.3 567.03C933.927 573.956 931.875 580.862 927.515 586.502C923.156 592.142 916.775 596.145 909.525 597.788C907.95 598.147 908.765 600.369 910.331 600.012Z" fill="white"/>
<path d="M900.131 663.735C886.015 655.998 875.548 643.588 870.817 628.981C870.35 627.534 867.963 628.286 868.43 629.731C873.383 644.923 884.303 657.816 899.012 665.838C900.415 666.602 901.526 664.495 900.131 663.735Z" fill="white"/>
<path d="M885.259 535.76C882.407 537.043 879.258 537.647 876.095 537.516C872.931 537.385 869.852 536.525 867.133 535.012C865.742 534.232 864.632 536.34 866.014 537.115C869.026 538.773 872.428 539.72 875.923 539.872C879.418 540.023 882.9 539.375 886.064 537.984C886.374 537.877 886.629 537.663 886.775 537.387C886.922 537.11 886.951 536.792 886.855 536.497C886.747 536.203 886.519 535.961 886.22 535.823C885.921 535.685 885.575 535.663 885.259 535.76V535.76Z" fill="white"/>
<path d="M690.577 590.888C691.431 591.398 692.285 591.908 693.14 592.438C704.583 599.35 715.404 607.116 725.497 615.66C726.289 616.309 727.081 616.978 727.85 617.647C751.931 638.474 771.651 663.283 786.008 690.815C791.71 701.776 796.509 713.125 800.363 724.763C805.684 740.837 810.081 758.66 820.486 771.771C821.555 773.15 822.715 774.467 823.958 775.712L917.168 775.157C917.379 775.056 917.592 774.976 917.804 774.875L921.527 775.012C921.373 774.399 921.199 773.766 921.046 773.153C920.958 772.797 920.85 772.441 920.762 772.085C920.697 771.847 920.631 771.61 920.587 771.392C920.566 771.313 920.543 771.234 920.522 771.175C920.478 770.957 920.412 770.759 920.368 770.561C919.408 767.021 918.42 763.481 917.403 759.941C917.403 759.921 917.403 759.921 917.382 759.902C909.561 732.947 899.256 706.364 884.947 682.083C884.516 681.353 884.086 680.603 883.613 679.873C877.098 668.961 869.636 658.564 861.302 648.785C856.721 643.444 851.852 638.323 846.714 633.44C833.413 620.849 818.068 610.284 801.243 602.134C767.699 585.892 728.952 579.824 693.293 590.08C692.381 590.343 691.489 590.606 690.577 590.888Z" fill="#F2F2F2"/>
<path d="M690.794 591.989C737.268 600.299 779.749 622.038 812.204 654.118C819.112 661.031 825.474 668.603 829.761 677.211C833.869 685.633 835.482 694.925 834.432 704.124C833.637 712.719 831.756 721.424 833.218 730.05C834.759 739.141 840.611 746.552 848.773 751.564C858.76 757.696 870.517 760.121 882.103 762.119C894.967 764.338 908.366 766.453 919.14 773.864C920.446 774.762 921.865 772.823 920.562 771.926C901.816 759.032 876.834 761.91 856.362 752.85C846.81 748.623 838.567 741.688 836.139 731.775C834.017 723.107 835.949 714.128 836.834 705.432C837.764 696.301 837.027 687.533 833.319 678.959C829.527 670.189 823.469 662.369 816.781 655.323C801.487 639.45 783.609 625.915 763.801 615.215C741.267 602.886 716.635 594.239 690.971 589.647C689.383 589.364 689.216 591.707 690.794 591.989Z" fill="white"/>
<path d="M802.407 643.215C807.446 637.413 810.106 630.13 809.913 622.669C809.72 615.208 806.686 608.053 801.353 602.483C800.269 601.36 798.344 602.875 799.429 604C804.405 609.178 807.231 615.843 807.396 622.791C807.56 629.739 805.053 636.514 800.326 641.891C799.3 643.061 801.387 644.379 802.407 643.215Z" fill="white"/>
<path d="M835.451 699.815C819.178 701.554 802.8 697.516 789.582 688.506C788.273 687.612 786.853 689.551 788.161 690.444C801.934 699.796 818.988 703.966 835.917 702.122C837.53 701.945 837.055 699.639 835.451 699.815Z" fill="white"/>
<path d="M740.859 605.975C739.412 608.599 737.287 610.846 734.677 612.516C732.066 614.186 729.051 615.226 725.903 615.542C724.288 615.7 724.764 618.006 726.369 617.849C729.846 617.485 733.174 616.332 736.062 614.493C738.951 612.654 741.312 610.184 742.939 607.299C743.117 607.039 743.182 606.726 743.121 606.423C743.06 606.12 742.877 605.85 742.61 605.668C742.334 605.494 741.995 605.429 741.667 605.486C741.339 605.544 741.048 605.719 740.859 605.975H740.859Z" fill="white"/>
<path d="M1137.64 410.683L1125.03 297.032L1121.7 250.256L1156.99 244.314C1156.99 244.314 1162.27 276.47 1166.89 295.34C1171.45 313.961 1160.81 408.188 1160.53 410.673C1163.12 412.831 1164.95 415.671 1165.77 418.818C1166.59 421.964 1166.37 425.268 1165.13 428.293C1163.89 431.318 1161.69 433.921 1158.83 435.758C1155.97 437.596 1152.57 438.58 1149.1 438.582C1145.62 438.583 1142.23 437.602 1139.36 435.767C1136.5 433.932 1134.3 431.331 1133.06 428.307C1131.82 425.283 1131.59 421.979 1132.41 418.833C1133.22 415.686 1135.05 412.844 1137.64 410.683Z" fill="#FFB8B8"/>
<path d="M993.461 759.644H975.512L966.973 695.157L993.464 695.158L993.461 759.644Z" fill="#FFB6B6"/>
<path d="M998.038 775.851L940.164 775.849V775.167C940.165 769.602 942.538 764.265 946.763 760.33C950.987 756.395 956.716 754.185 962.69 754.184H962.692L973.263 746.714L992.987 754.186L998.039 754.186L998.038 775.851Z" fill="#2F2E41"/>
<path d="M1151.65 759.644H1133.7L1125.16 695.157L1151.65 695.158L1151.65 759.644Z" fill="#FFB6B6"/>
<path d="M1156.23 775.851L1098.35 775.849V775.167C1098.35 769.602 1100.73 764.265 1104.95 760.33C1109.17 756.395 1114.9 754.185 1120.88 754.184H1120.88L1131.45 746.714L1151.17 754.186L1156.23 754.186L1156.23 775.851Z" fill="#2F2E41"/>
<path d="M1124.35 414.505L1139.45 548.094C1139.45 548.094 1159.54 681.854 1155.77 700.311C1151.99 718.767 1156.71 721.404 1156.71 721.404L1122.28 719.119C1122.28 719.119 1123.22 707.694 1117.56 702.42C1111.9 697.147 1114.73 681.327 1114.73 681.327L1047.92 463.722L1007.35 577.975C1007.35 577.975 1000.75 703.654 999.805 705.412C998.862 707.17 996.031 730.899 996.031 730.899H961.121C961.121 730.899 965.838 716.837 959.234 712.443C952.629 708.049 946.968 711.564 952.629 703.654C958.29 695.744 960.177 686.077 958.29 681.682C956.403 677.288 956.403 659.711 956.403 659.711C956.403 659.711 959.234 422.415 975.274 414.505C991.313 406.595 1124.35 414.505 1124.35 414.505Z" fill="#2F2E41"/>
<path d="M1052.86 144.022C1073.36 144.022 1089.99 128.537 1089.99 109.435C1089.99 90.3336 1073.36 74.8486 1052.86 74.8486C1032.35 74.8486 1015.73 90.3336 1015.73 109.435C1015.73 128.537 1032.35 144.022 1052.86 144.022Z" fill="#FFB8B8"/>
<path d="M1162.93 262.445L1126.42 274.645L1115.29 278.357L1107.18 181.769L1135.04 195.533C1135.08 195.565 1135.12 195.603 1135.16 195.647C1139.98 200.611 1144.02 206.192 1147.15 212.221C1162.43 241.154 1162.93 262.445 1162.93 262.445Z" fill="#3F3D56"/>
<path d="M911.365 402.524C911.365 402.524 948.48 295.105 949.129 293.817C953.991 259.43 967.973 244.262 970.069 245.908L1006.16 257.554C1006.16 257.554 995.422 289.216 988.154 308.023C981.21 325.994 933.649 408.964 932.314 411.131C933.748 414.081 934.187 417.366 933.573 420.553C932.959 423.74 931.32 426.678 928.875 428.978C926.429 431.279 923.291 432.834 919.876 433.437C916.461 434.041 912.93 433.664 909.75 432.357C906.569 431.051 903.89 428.875 902.066 426.119C900.242 423.363 899.359 420.156 899.534 416.923C899.709 413.689 900.934 410.581 903.046 408.01C905.159 405.439 908.06 403.526 911.365 402.524H911.365Z" fill="#FFB8B8"/>
<path d="M1023.49 187.989C1023.49 187.989 992.247 173.726 980.129 201.74C972.193 220.633 968.434 228.874 963.135 248.552C963.135 248.552 994.984 253.003 1005.2 269.767L1023.49 187.989Z" fill="#3F3D56"/>
<path d="M1137.18 429.065C1065.27 442.898 969.981 419.116 969.981 419.116L995.402 316.474L986.364 209.057C985.26 195.921 993.292 183.608 1005.79 179.245L1023.04 173.225L1037.3 154.207L1078.04 155.452L1094.32 175.418L1107.18 181.769L1135.04 195.533L1135.16 195.59V195.647L1126.42 274.645L1121.14 322.277C1121.14 322.277 1137.16 375.848 1133.87 382.953C1130.58 390.046 1133.44 386.619 1134.24 390.411C1135.04 394.204 1137.48 394.444 1137.84 401.914C1138.22 409.373 1137.18 429.065 1137.18 429.065Z" fill="#3F3D56"/>
<path d="M1093.14 97.119C1090.2 94.4226 1094.62 87.2841 1093.78 83.5241C1092.83 79.2132 1087.73 79.087 1086.51 74.8333C1085.2 70.2574 1079.97 67.7662 1075.13 66.316C1062.72 62.6185 1049.49 62.0537 1036.77 64.6794C1031.14 65.9595 1025.6 67.5496 1020.17 69.4412C1016.43 70.6691 1020.04 67.3278 1016.3 68.5557C1014.88 68.8501 1013.63 69.6233 1012.78 70.7261C1012.11 71.912 1013.02 73.8086 1014.44 73.5684C1009.86 75.4467 1005.29 77.325 1000.72 79.2033C1003.28 81.7056 1005.85 84.208 1008.41 86.7105C1004.77 85.7439 1000.88 89.7928 1002.32 93.0598C1002.89 94.0911 1003.73 94.976 1004.76 95.6383C1005.79 96.3005 1006.97 96.7202 1008.21 96.8613C1012.33 97.6078 1009.21 101.259 1013.4 101.188C1017.6 101.117 1046.85 93.1062 1048.89 96.5219C1050.34 98.9542 1050.18 102.176 1052.26 104.18C1054.91 106.744 1059.54 105.806 1062.92 104.137C1066.3 102.468 1069.72 100.174 1073.52 100.574C1077.49 100.992 1080.49 107.819 1081.46 111.423C1082.44 115.028 1081.82 118.821 1081.2 122.494C1080.38 127.317 1072.21 132.14 1071.39 136.963C1080.47 139.3 1090.2 131.864 1093.78 118.934C1093.43 110.76 1099.39 102.865 1093.14 97.119Z" fill="#2F2E41"/>
<path d="M515.91 546.306C406.605 546.311 311.503 470.359 297.453 366.764L300.139 366.447C314.015 468.763 407.959 543.779 515.912 543.785C525.084 543.785 534.247 543.246 543.346 542.173C662.41 528.162 747.038 426.535 731.997 315.629L734.682 315.312C749.911 427.597 664.23 530.49 543.686 544.674C534.473 545.76 525.196 546.305 515.91 546.306Z" fill="#3F3D56"/>
<path d="M521.779 588.468H478.742C477.823 588.47 476.915 588.278 476.086 587.906C475.258 587.534 474.531 586.993 473.959 586.322C473.394 585.668 472.996 584.904 472.794 584.086C472.591 583.268 472.591 582.419 472.791 581.601C476.875 564.812 476.634 547.361 472.088 530.675C471.777 529.523 471.866 528.308 472.34 527.205C472.814 526.102 473.65 525.167 474.728 524.532C489.617 515.941 505.829 516.209 524.294 525.354C525.133 525.766 525.859 526.352 526.415 527.068C526.971 527.784 527.341 528.61 527.498 529.482C530.556 547.397 530.663 565.642 527.815 583.588C527.613 584.944 526.89 586.185 525.78 587.082C524.67 587.98 523.249 588.472 521.779 588.468Z" fill="#F17D24"/>
<path d="M325.563 374.183H282.526C281.606 374.185 280.698 373.992 279.87 373.621C279.042 373.249 278.314 372.707 277.743 372.037C277.178 371.383 276.78 370.618 276.577 369.801C276.375 368.983 276.374 368.133 276.575 367.315C280.674 350.468 280.417 332.955 275.824 316.219C275.533 315.117 275.604 313.96 276.026 312.895C276.447 311.831 277.202 310.908 278.191 310.247C300.321 295.421 317.749 295.851 329.991 311.528C330.543 312.242 330.91 313.066 331.063 313.935C334.334 332.252 334.515 350.933 331.599 369.303C331.396 370.658 330.673 371.9 329.564 372.797C328.454 373.694 327.033 374.187 325.563 374.183Z" fill="#CCCCCC"/>
<path d="M501.671 550.843H486.866C486.048 550.842 485.265 550.538 484.687 549.999C484.11 549.46 483.785 548.73 483.785 547.968C483.785 547.207 484.11 546.476 484.687 545.937C485.265 545.398 486.048 545.094 486.866 545.093H501.671C502.489 545.093 503.274 545.396 503.853 545.935C504.432 546.474 504.758 547.205 504.758 547.968C504.758 548.731 504.432 549.462 503.853 550.001C503.274 550.54 502.489 550.843 501.671 550.843Z" fill="white"/>
<path d="M519.773 562.205H486.866C486.048 562.203 485.265 561.899 484.687 561.36C484.11 560.821 483.785 560.091 483.785 559.329C483.785 558.568 484.11 557.837 484.687 557.298C485.265 556.759 486.048 556.456 486.866 556.454H519.773C520.59 556.456 521.374 556.759 521.951 557.298C522.529 557.837 522.853 558.568 522.853 559.329C522.853 560.091 522.529 560.821 521.951 561.36C521.374 561.899 520.59 562.203 519.773 562.205Z" fill="white"/>
<path d="M312.22 334.037H297.416C296.598 334.036 295.815 333.732 295.237 333.193C294.66 332.654 294.335 331.923 294.335 331.162C294.335 330.4 294.66 329.67 295.237 329.131C295.815 328.592 296.598 328.288 297.416 328.287H312.22C313.038 328.288 313.821 328.592 314.399 329.131C314.976 329.67 315.301 330.4 315.301 331.162C315.301 331.923 314.976 332.654 314.399 333.193C313.821 333.732 313.038 334.036 312.22 334.037Z" fill="white"/>
<path d="M312.22 344.121H297.416C296.598 344.12 295.815 343.816 295.237 343.277C294.66 342.738 294.335 342.007 294.335 341.246C294.335 340.484 294.66 339.754 295.237 339.215C295.815 338.676 296.598 338.372 297.416 338.371H312.22C313.038 338.372 313.821 338.676 314.399 339.215C314.976 339.754 315.301 340.484 315.301 341.246C315.301 342.007 314.976 342.738 314.399 343.277C313.821 343.816 313.038 344.12 312.22 344.121Z" fill="white"/>
<path d="M312.22 354.205H297.416C296.598 354.204 295.815 353.9 295.237 353.361C294.66 352.822 294.335 352.091 294.335 351.33C294.335 350.568 294.66 349.838 295.237 349.299C295.815 348.76 296.598 348.456 297.416 348.455H312.22C313.038 348.456 313.821 348.76 314.399 349.299C314.976 349.838 315.301 350.568 315.301 351.33C315.301 352.091 314.976 352.822 314.399 353.361C313.821 353.9 313.038 354.204 312.22 354.205Z" fill="white"/>
<path d="M904.796 421.543H767.221C763.534 421.54 759.999 420.174 757.392 417.745C754.785 415.317 753.319 412.024 753.315 408.59V329.662C753.319 326.227 754.785 322.935 757.392 320.506C759.999 318.078 763.534 316.712 767.221 316.708H904.796C908.483 316.712 912.018 318.078 914.625 320.506C917.232 322.935 918.699 326.227 918.703 329.662V408.59C918.699 412.024 917.232 415.317 914.625 417.745C912.018 420.174 908.483 421.54 904.796 421.543Z" fill="#E6E6E6"/>
<path d="M850.135 411.377H776.892C773.439 411.374 770.128 410.094 767.686 407.82C765.245 405.546 763.871 402.462 763.867 399.246V339.006C763.871 335.79 765.245 332.706 767.686 330.432C770.128 328.157 773.439 326.878 776.892 326.875H895.126C898.579 326.878 901.889 328.157 904.331 330.432C906.773 332.706 908.146 335.79 908.15 339.006V357.338C908.132 371.665 902.015 385.401 891.138 395.532C880.262 405.663 865.516 411.361 850.135 411.377Z" fill="white"/>
<path d="M883.331 359.86H788.686C787.868 359.86 787.083 359.557 786.504 359.018C785.925 358.479 785.6 357.748 785.6 356.985C785.6 356.223 785.925 355.491 786.504 354.952C787.083 354.413 787.868 354.11 788.686 354.11H883.331C884.15 354.11 884.935 354.413 885.514 354.952C886.092 355.491 886.418 356.223 886.418 356.985C886.418 357.748 886.092 358.479 885.514 359.018C884.935 359.557 884.15 359.86 883.331 359.86Z" fill="#F17D24"/>
<path d="M803.491 371.221H788.686C787.869 371.22 787.085 370.916 786.508 370.377C785.93 369.838 785.606 369.108 785.606 368.346C785.606 367.584 785.93 366.854 786.508 366.315C787.085 365.776 787.869 365.472 788.686 365.471H803.491C804.309 365.472 805.092 365.776 805.67 366.315C806.247 366.854 806.572 367.584 806.572 368.346C806.572 369.108 806.247 369.838 805.67 370.377C805.092 370.916 804.309 371.22 803.491 371.221Z" fill="#F17D24"/>
<path d="M829.712 382.583H788.686C787.868 382.583 787.082 382.28 786.504 381.741C785.925 381.201 785.599 380.47 785.599 379.707C785.599 378.945 785.925 378.213 786.504 377.674C787.082 377.135 787.868 376.832 788.686 376.832H829.712C830.531 376.832 831.316 377.135 831.895 377.674C832.474 378.213 832.799 378.945 832.799 379.707C832.799 380.47 832.474 381.201 831.895 381.741C831.316 382.28 830.531 382.583 829.712 382.583Z" fill="#F17D24"/>
<path d="M748.514 342.245C764.587 342.245 777.616 330.108 777.616 315.136C777.616 300.165 764.587 288.028 748.514 288.028C732.441 288.028 719.411 300.165 719.411 315.136C719.411 330.108 732.441 342.245 748.514 342.245Z" fill="#3F3D56"/>
<path d="M419.073 108.92C421 99.8107 424.833 91.1444 430.356 83.4156C435.878 75.6868 442.98 69.0469 451.257 63.8749C467.973 53.4295 488.459 49.5975 508.209 53.2218C517.988 55.0164 527.291 58.5875 535.589 63.7313C543.886 68.8751 551.014 75.4908 556.567 83.2007C562.119 90.9106 565.987 99.5638 567.949 108.666C569.911 117.768 569.93 127.142 568.003 136.25L565.347 135.763C569.099 118.023 565.132 99.6213 554.318 84.6058C543.505 69.5902 526.731 59.1911 507.686 55.696C488.641 52.2009 468.885 55.8962 452.765 65.9689C436.645 76.0416 425.481 91.6667 421.729 109.407L419.073 108.92Z" fill="#3F3D56"/>
<path d="M447.893 153.521L404.893 155.18C403.974 155.218 403.059 155.061 402.214 154.721C401.37 154.382 400.62 153.869 400.019 153.221C399.425 152.589 398.993 151.841 398.755 151.031C398.517 150.222 398.478 149.373 398.642 148.548C401.942 131.788 400.98 114.54 395.834 98.1877C395.437 96.9371 395.518 95.5969 396.063 94.3955C396.607 93.1942 397.583 92.206 398.822 91.5994C416.435 83.0757 432.938 82.6435 447.87 90.3133C448.653 90.7094 449.333 91.2597 449.864 91.9258C450.395 92.592 450.764 93.358 450.944 94.1704C454.831 112.014 455.763 130.307 453.707 148.413C453.565 149.775 452.898 151.044 451.829 151.983C450.76 152.922 449.362 153.469 447.893 153.521Z" fill="#F17D24"/>
<path d="M446.074 127.306L413.195 128.575C412.79 128.591 412.385 128.532 412.004 128.402C411.623 128.273 411.273 128.074 410.975 127.818C410.676 127.563 410.435 127.255 410.264 126.912C410.094 126.569 409.997 126.198 409.98 125.821C409.964 125.444 410.027 125.067 410.166 124.712C410.306 124.357 410.519 124.032 410.794 123.754C411.069 123.476 411.4 123.251 411.768 123.093C412.136 122.934 412.534 122.844 412.939 122.829L445.818 121.561C446.223 121.545 446.627 121.604 447.008 121.734C447.389 121.864 447.738 122.062 448.036 122.318C448.335 122.574 448.576 122.882 448.746 123.224C448.917 123.567 449.013 123.937 449.03 124.314C449.047 124.692 448.984 125.068 448.844 125.423C448.705 125.777 448.492 126.103 448.217 126.381C447.942 126.659 447.612 126.883 447.244 127.042C446.876 127.201 446.479 127.291 446.074 127.306Z" fill="white"/>
<path d="M445.626 117.231L412.747 118.499C411.929 118.531 411.131 118.258 410.529 117.742C409.926 117.225 409.569 116.507 409.535 115.745C409.501 114.983 409.794 114.24 410.348 113.679C410.903 113.118 411.674 112.785 412.492 112.753L445.37 111.485C446.188 111.453 446.986 111.726 447.588 112.242C448.191 112.759 448.548 113.477 448.582 114.239C448.616 115.001 448.324 115.744 447.769 116.305C447.215 116.866 446.444 117.199 445.626 117.231Z" fill="white"/>
<path d="M729.305 140.836H591.73C588.043 140.832 584.508 139.466 581.901 137.037C579.294 134.609 577.827 131.316 577.823 127.882V48.9539C577.827 45.5195 579.294 42.2269 581.901 39.7984C584.508 37.3699 588.043 36.0039 591.73 36H729.305C732.992 36.0039 736.527 37.3699 739.134 39.7984C741.741 42.2269 743.207 45.5195 743.211 48.9539V127.882C743.207 131.316 741.741 134.609 739.134 137.037C736.527 139.466 732.992 140.832 729.305 140.836Z" fill="#E6E6E6"/>
<path d="M674.644 130.669H601.401C597.948 130.666 594.637 129.386 592.195 127.112C589.754 124.838 588.38 121.754 588.376 118.538V58.2982C588.38 55.0817 589.754 51.998 592.195 49.7237C594.637 47.4493 597.948 46.1701 601.401 46.1665H719.635C723.088 46.1701 726.398 47.4494 728.84 49.7237C731.281 51.9981 732.655 55.0818 732.659 58.2982V76.6303C732.641 90.9574 726.523 104.693 715.647 114.824C704.771 124.955 690.025 130.653 674.644 130.669Z" fill="white"/>
<path d="M707.84 79.1518H613.195C612.376 79.1518 611.591 78.8489 611.012 78.3097C610.434 77.7705 610.108 77.0391 610.108 76.2766C610.108 75.514 610.434 74.7827 611.012 74.2435C611.591 73.7043 612.376 73.4014 613.195 73.4014H707.84C708.658 73.4014 709.443 73.7043 710.022 74.2435C710.601 74.7827 710.926 75.514 710.926 76.2766C710.926 77.0391 710.601 77.7705 710.022 78.3097C709.443 78.8489 708.658 79.1518 707.84 79.1518Z" fill="#F17D24"/>
<path d="M628 90.5134H613.195C612.378 90.5118 611.594 90.2081 611.017 89.6691C610.439 89.13 610.115 88.3996 610.115 87.638C610.115 86.8765 610.439 86.146 611.017 85.607C611.594 85.0679 612.378 84.7643 613.195 84.7627H628C628.818 84.7643 629.601 85.0679 630.179 85.607C630.756 86.146 631.08 86.8765 631.08 87.638C631.08 88.3996 630.756 89.13 630.179 89.6691C629.601 90.2081 628.818 90.5118 628 90.5134Z" fill="#F17D24"/>
<path d="M654.221 101.875H613.195C612.376 101.875 611.591 101.572 611.012 101.033C610.433 100.493 610.108 99.762 610.108 98.9994C610.108 98.2368 610.433 97.5054 611.012 96.9662C611.591 96.427 612.376 96.124 613.195 96.124H654.221C655.039 96.1256 655.822 96.4293 656.4 96.9683C656.977 97.5074 657.302 98.2378 657.302 98.9994C657.302 99.7609 656.977 100.491 656.4 101.03C655.822 101.569 655.039 101.873 654.221 101.875Z" fill="#F17D24"/>
<path d="M594.174 154.499C602.659 141.784 598.472 125.068 584.822 117.164C571.171 109.26 553.227 113.161 544.741 125.876C536.256 138.591 540.443 155.306 554.094 163.21C567.744 171.114 585.689 167.214 594.174 154.499Z" fill="#3F3D56"/>
<path d="M181.775 351.667C169.835 322.265 170.923 289.65 184.8 260.995C198.676 232.34 224.205 209.994 255.769 198.872C287.334 187.75 322.348 188.763 353.111 201.689C383.873 214.615 407.863 238.394 419.803 267.796L417.271 268.688C411.485 254.44 402.742 241.392 391.543 230.291C380.343 219.189 366.906 210.252 351.998 203.988C337.09 197.723 321.003 194.256 304.657 193.783C288.31 193.31 272.024 195.84 256.727 201.23C241.431 206.62 227.423 214.764 215.505 225.196C203.588 235.628 193.992 248.145 187.267 262.031C180.543 275.918 176.82 290.902 176.312 306.129C175.804 321.355 178.521 336.526 184.307 350.775L181.775 351.667Z" fill="#3F3D56"/>
<path d="M293.086 234.267H250.049C249.129 234.269 248.221 234.077 247.393 233.705C246.564 233.333 245.837 232.792 245.265 232.121C244.701 231.467 244.302 230.703 244.1 229.885C243.898 229.067 243.897 228.217 244.098 227.399C248.172 210.65 247.942 193.241 243.425 176.59C243.105 175.411 243.203 174.168 243.705 173.046C244.207 171.924 245.086 170.984 246.21 170.366C261.799 161.913 278.448 162.171 295.691 171.135C296.507 171.549 297.211 172.132 297.748 172.839C298.286 173.545 298.644 174.357 298.794 175.212C301.862 193.149 301.973 211.418 299.122 229.387C298.919 230.743 298.196 231.984 297.086 232.881C295.977 233.778 294.555 234.271 293.086 234.267Z" fill="#F17D24"/>
<path d="M272.977 195.382H258.172C257.355 195.38 256.571 195.077 255.994 194.538C255.416 193.999 255.092 193.268 255.092 192.507C255.092 191.745 255.416 191.015 255.994 190.476C256.571 189.937 257.355 189.633 258.172 189.631H272.977C273.795 189.633 274.578 189.937 275.156 190.476C275.733 191.015 276.058 191.745 276.058 192.507C276.058 193.268 275.733 193.999 275.156 194.538C274.578 195.077 273.795 195.38 272.977 195.382Z" fill="white"/>
<path d="M291.079 206.743H258.172C257.354 206.743 256.568 206.44 255.99 205.901C255.411 205.362 255.085 204.631 255.085 203.868C255.085 203.105 255.411 202.374 255.99 201.835C256.568 201.296 257.354 200.993 258.172 200.993H291.079C291.897 200.994 292.68 201.298 293.258 201.837C293.835 202.376 294.16 203.106 294.16 203.868C294.16 204.63 293.835 205.36 293.258 205.899C292.68 206.438 291.897 206.742 291.079 206.743Z" fill="white"/>
<path d="M151.481 350.079H13.9066C10.2196 350.075 6.68483 348.709 4.07774 346.28C1.47064 343.852 0.00415825 340.559 0 337.125V258.197C0.00415825 254.763 1.47064 251.47 4.07774 249.042C6.68483 246.613 10.2196 245.247 13.9066 245.243H151.481C155.168 245.247 158.703 246.613 161.31 249.042C163.917 251.47 165.384 254.763 165.388 258.197V337.125C165.384 340.559 163.917 343.852 161.31 346.28C158.703 348.709 155.168 350.075 151.481 350.079Z" fill="#E6E6E6"/>
<path d="M96.8208 339.912H23.5773C20.1242 339.909 16.8137 338.63 14.3719 336.355C11.9301 334.081 10.5566 330.997 10.5526 327.781V267.541C10.5566 264.325 11.9301 261.241 14.3719 258.967C16.8137 256.692 20.1242 255.413 23.5773 255.41H141.811C145.264 255.413 148.575 256.693 151.016 258.967C153.458 261.241 154.831 264.325 154.835 267.541V285.873C154.818 300.201 148.7 313.936 137.824 324.067C126.948 334.198 112.202 339.896 96.8208 339.912Z" fill="white"/>
<path d="M130.016 288.395H35.3717C34.5531 288.395 33.768 288.092 33.1891 287.553C32.6102 287.014 32.285 286.283 32.285 285.52C32.285 284.758 32.6102 284.026 33.1891 283.487C33.768 282.948 34.5531 282.645 35.3717 282.645H130.016C130.835 282.645 131.62 282.948 132.199 283.487C132.778 284.026 133.103 284.758 133.103 285.52C133.103 286.283 132.778 287.014 132.199 287.553C131.62 288.092 130.835 288.395 130.016 288.395Z" fill="#F17D24"/>
<path d="M50.1767 299.757H35.3718C34.5542 299.755 33.7707 299.451 33.1932 298.912C32.6157 298.373 32.2914 297.643 32.2914 296.881C32.2914 296.12 32.6157 295.389 33.1932 294.85C33.7707 294.311 34.5542 294.007 35.3718 294.006H50.1767C50.9942 294.007 51.7777 294.311 52.3552 294.85C52.9327 295.389 53.257 296.12 53.257 296.881C53.257 297.643 52.9327 298.373 52.3552 298.912C51.7777 299.451 50.9942 299.755 50.1767 299.757Z" fill="#F17D24"/>
<path d="M76.3979 311.118H35.3718C34.5542 311.116 33.7707 310.813 33.1932 310.274C32.6157 309.734 32.2914 309.004 32.2914 308.242C32.2914 307.481 32.6157 306.751 33.1932 306.211C33.7707 305.672 34.5542 305.369 35.3718 305.367H76.3979C77.2166 305.367 78.0018 305.67 78.5806 306.209C79.1595 306.749 79.4848 307.48 79.4848 308.242C79.4848 309.005 79.1595 309.736 78.5806 310.276C78.0018 310.815 77.2166 311.118 76.3979 311.118Z" fill="#F17D24"/>
<path d="M205.801 361.221C214.286 348.506 210.099 331.791 196.449 323.887C182.798 315.983 164.854 319.883 156.368 332.598C147.883 345.313 152.07 362.029 165.721 369.933C179.371 377.837 197.316 373.936 205.801 361.221Z" fill="#3F3D56"/>
<path d="M440.587 309.897H397.549C396.63 309.899 395.722 309.707 394.893 309.335C394.065 308.963 393.338 308.422 392.766 307.751C392.201 307.097 391.803 306.333 391.601 305.515C391.398 304.697 391.398 303.848 391.598 303.03C395.665 286.31 395.443 268.932 390.95 252.307C390.631 251.112 390.739 249.853 391.258 248.721C391.776 247.588 392.677 246.644 393.824 246.032C414.731 234.884 431.285 235.192 444.434 246.973C445.355 247.813 445.962 248.908 446.165 250.094C449.359 268.27 449.514 286.797 446.622 305.017C446.42 306.373 445.697 307.614 444.587 308.511C443.477 309.409 442.056 309.901 440.587 309.897Z" fill="#FF6584"/>
<path d="M423.184 272.273H408.379C407.562 272.271 406.778 271.967 406.201 271.428C405.623 270.889 405.299 270.159 405.299 269.397C405.299 268.636 405.623 267.905 406.201 267.366C406.778 266.827 407.562 266.524 408.379 266.522H423.184C424.002 266.524 424.785 266.827 425.363 267.366C425.94 267.905 426.264 268.636 426.264 269.397C426.264 270.159 425.94 270.889 425.363 271.428C424.785 271.967 424.002 272.271 423.184 272.273Z" fill="white"/>
<path d="M441.286 283.634H408.379C407.561 283.634 406.775 283.331 406.197 282.792C405.618 282.253 405.292 281.521 405.292 280.759C405.292 279.996 405.618 279.265 406.197 278.725C406.775 278.186 407.561 277.883 408.379 277.883H441.286C442.104 277.885 442.887 278.189 443.465 278.728C444.042 279.267 444.367 279.997 444.367 280.759C444.367 281.52 444.042 282.251 443.465 282.79C442.887 283.329 442.104 283.632 441.286 283.634Z" fill="white"/>
<path d="M31.072 214.2C33.248 214.2 34.96 214.72 36.208 215.76C37.456 216.8 38.08 218.232 38.08 220.056C38.08 221.88 37.456 223.312 36.208 224.352C34.96 225.392 33.248 225.912 31.072 225.912H26.92V231H24.52V214.2H31.072ZM31 223.824C32.52 223.824 33.68 223.504 34.48 222.864C35.28 222.208 35.68 221.272 35.68 220.056C35.68 218.84 35.28 217.912 34.48 217.272C33.68 216.616 32.52 216.288 31 216.288H26.92V223.824H31ZM41.5043 213.192H43.8083V231H41.5043V213.192ZM52.8394 218.16C54.5994 218.16 55.9434 218.592 56.8714 219.456C57.8154 220.32 58.2874 221.608 58.2874 223.32V231H56.1034V229.32C55.7194 229.912 55.1674 230.368 54.4474 230.688C53.7434 230.992 52.9034 231.144 51.9274 231.144C50.5034 231.144 49.3594 230.8 48.4954 230.112C47.6474 229.424 47.2234 228.52 47.2234 227.4C47.2234 226.28 47.6314 225.384 48.4474 224.712C49.2634 224.024 50.5594 223.68 52.3354 223.68H55.9834V223.224C55.9834 222.232 55.6954 221.472 55.1194 220.944C54.5434 220.416 53.6954 220.152 52.5754 220.152C51.8234 220.152 51.0874 220.28 50.3674 220.536C49.6474 220.776 49.0394 221.104 48.5434 221.52L47.5834 219.792C48.2394 219.264 49.0234 218.864 49.9354 218.592C50.8474 218.304 51.8154 218.16 52.8394 218.16ZM52.3114 229.368C53.1914 229.368 53.9514 229.176 54.5914 228.792C55.2314 228.392 55.6954 227.832 55.9834 227.112V225.336H52.4314C50.4794 225.336 49.5034 225.992 49.5034 227.304C49.5034 227.944 49.7514 228.448 50.2474 228.816C50.7434 229.184 51.4314 229.368 52.3114 229.368ZM69.3432 218.16C70.9592 218.16 72.2392 218.632 73.1832 219.576C74.1432 220.504 74.6232 221.872 74.6232 223.68V231H72.3192V223.944C72.3192 222.712 72.0232 221.784 71.4312 221.16C70.8392 220.536 69.9912 220.224 68.8872 220.224C67.6392 220.224 66.6552 220.592 65.9352 221.328C65.2152 222.048 64.8552 223.088 64.8552 224.448V231H62.5512V218.28H64.7592V220.2C65.2232 219.544 65.8472 219.04 66.6312 218.688C67.4312 218.336 68.3352 218.16 69.3432 218.16ZM85.6791 218.16C87.2951 218.16 88.5751 218.632 89.5191 219.576C90.4791 220.504 90.9591 221.872 90.9591 223.68V231H88.6551V223.944C88.6551 222.712 88.3591 221.784 87.7671 221.16C87.1751 220.536 86.3271 220.224 85.2231 220.224C83.9751 220.224 82.9911 220.592 82.2711 221.328C81.5511 222.048 81.1911 223.088 81.1911 224.448V231H78.8871V218.28H81.0951V220.2C81.5591 219.544 82.1831 219.04 82.9671 218.688C83.7671 218.336 84.6711 218.16 85.6791 218.16ZM95.2231 218.28H97.5271V231H95.2231V218.28ZM96.3751 215.832C95.9271 215.832 95.5511 215.688 95.2471 215.4C94.9591 215.112 94.8151 214.76 94.8151 214.344C94.8151 213.928 94.9591 213.576 95.2471 213.288C95.5511 212.984 95.9271 212.832 96.3751 212.832C96.8231 212.832 97.1911 212.976 97.4791 213.264C97.7831 213.536 97.9351 213.88 97.9351 214.296C97.9351 214.728 97.7831 215.096 97.4791 215.4C97.1911 215.688 96.8231 215.832 96.3751 215.832ZM108.718 218.16C110.334 218.16 111.614 218.632 112.558 219.576C113.518 220.504 113.998 221.872 113.998 223.68V231H111.694V223.944C111.694 222.712 111.398 221.784 110.806 221.16C110.214 220.536 109.366 220.224 108.262 220.224C107.014 220.224 106.03 220.592 105.31 221.328C104.59 222.048 104.23 223.088 104.23 224.448V231H101.926V218.28H104.134V220.2C104.598 219.544 105.222 219.04 106.006 218.688C106.806 218.336 107.71 218.16 108.718 218.16ZM130.5 218.28V229.272C130.5 231.496 129.948 233.136 128.844 234.192C127.74 235.264 126.092 235.8 123.9 235.8C122.7 235.8 121.556 235.632 120.468 235.296C119.38 234.976 118.5 234.512 117.828 233.904L118.932 232.128C119.524 232.64 120.252 233.04 121.116 233.328C121.996 233.632 122.9 233.784 123.828 233.784C125.316 233.784 126.412 233.432 127.116 232.728C127.836 232.024 128.196 230.952 128.196 229.512V228.504C127.652 229.16 126.98 229.656 126.18 229.992C125.396 230.312 124.54 230.472 123.612 230.472C122.396 230.472 121.292 230.216 120.3 229.704C119.324 229.176 118.556 228.448 117.996 227.52C117.436 226.576 117.156 225.504 117.156 224.304C117.156 223.104 117.436 222.04 117.996 221.112C118.556 220.168 119.324 219.44 120.3 218.928C121.292 218.416 122.396 218.16 123.612 218.16C124.572 218.16 125.46 218.336 126.276 218.688C127.108 219.04 127.788 219.56 128.316 220.248V218.28H130.5ZM123.876 228.456C124.708 228.456 125.452 228.28 126.108 227.928C126.78 227.576 127.3 227.088 127.668 226.464C128.052 225.824 128.244 225.104 128.244 224.304C128.244 223.072 127.836 222.08 127.02 221.328C126.204 220.56 125.156 220.176 123.876 220.176C122.58 220.176 121.524 220.56 120.708 221.328C119.892 222.08 119.484 223.072 119.484 224.304C119.484 225.104 119.668 225.824 120.036 226.464C120.42 227.088 120.94 227.576 121.596 227.928C122.268 228.28 123.028 228.456 123.876 228.456Z" fill="black"/>
<path d="M522.075 6.2H529.155C530.931 6.2 532.507 6.552 533.883 7.256C535.259 7.96 536.323 8.952 537.075 10.232C537.843 11.496 538.227 12.952 538.227 14.6C538.227 16.248 537.843 17.712 537.075 18.992C536.323 20.256 535.259 21.24 533.883 21.944C532.507 22.648 530.931 23 529.155 23H522.075V6.2ZM529.011 20.912C530.371 20.912 531.563 20.648 532.587 20.12C533.627 19.592 534.427 18.856 534.987 17.912C535.547 16.952 535.827 15.848 535.827 14.6C535.827 13.352 535.547 12.256 534.987 11.312C534.427 10.352 533.627 9.608 532.587 9.08C531.563 8.552 530.371 8.288 529.011 8.288H524.475V20.912H529.011ZM553.063 16.712C553.063 16.888 553.047 17.12 553.015 17.408H542.695C542.839 18.528 543.327 19.432 544.159 20.12C545.007 20.792 546.055 21.128 547.303 21.128C548.823 21.128 550.047 20.616 550.975 19.592L552.247 21.08C551.671 21.752 550.951 22.264 550.087 22.616C549.239 22.968 548.287 23.144 547.231 23.144C545.887 23.144 544.695 22.872 543.655 22.328C542.615 21.768 541.807 20.992 541.231 20C540.671 19.008 540.391 17.888 540.391 16.64C540.391 15.408 540.663 14.296 541.207 13.304C541.767 12.312 542.527 11.544 543.487 11C544.463 10.44 545.559 10.16 546.775 10.16C547.991 10.16 549.071 10.44 550.015 11C550.975 11.544 551.719 12.312 552.247 13.304C552.791 14.296 553.063 15.432 553.063 16.712ZM546.775 12.104C545.671 12.104 544.743 12.44 543.991 13.112C543.255 13.784 542.823 14.664 542.695 15.752H550.855C550.727 14.68 550.287 13.808 549.535 13.136C548.799 12.448 547.879 12.104 546.775 12.104ZM559.91 23.144C558.87 23.144 557.87 23.008 556.91 22.736C555.95 22.448 555.198 22.088 554.654 21.656L555.614 19.832C556.174 20.232 556.854 20.552 557.654 20.792C558.454 21.032 559.262 21.152 560.078 21.152C562.094 21.152 563.102 20.576 563.102 19.424C563.102 19.04 562.966 18.736 562.694 18.512C562.422 18.288 562.078 18.128 561.662 18.032C561.262 17.92 560.686 17.8 559.934 17.672C558.91 17.512 558.07 17.328 557.414 17.12C556.774 16.912 556.222 16.56 555.758 16.064C555.294 15.568 555.062 14.872 555.062 13.976C555.062 12.824 555.542 11.904 556.502 11.216C557.462 10.512 558.75 10.16 560.366 10.16C561.214 10.16 562.062 10.264 562.91 10.472C563.758 10.68 564.454 10.96 564.998 11.312L564.014 13.136C562.974 12.464 561.75 12.128 560.342 12.128C559.366 12.128 558.622 12.288 558.11 12.608C557.598 12.928 557.342 13.352 557.342 13.88C557.342 14.296 557.486 14.624 557.774 14.864C558.062 15.104 558.414 15.28 558.83 15.392C559.262 15.504 559.862 15.632 560.63 15.776C561.654 15.952 562.478 16.144 563.102 16.352C563.742 16.544 564.286 16.88 564.734 17.36C565.182 17.84 565.406 18.512 565.406 19.376C565.406 20.528 564.91 21.448 563.918 22.136C562.942 22.808 561.606 23.144 559.91 23.144ZM568.286 10.28H570.59V23H568.286V10.28ZM569.438 7.832C568.99 7.832 568.614 7.688 568.31 7.4C568.022 7.112 567.878 6.76 567.878 6.344C567.878 5.928 568.022 5.576 568.31 5.288C568.614 4.984 568.99 4.832 569.438 4.832C569.886 4.832 570.254 4.976 570.542 5.264C570.846 5.536 570.998 5.88 570.998 6.296C570.998 6.728 570.846 7.096 570.542 7.4C570.254 7.688 569.886 7.832 569.438 7.832ZM587.157 10.28V21.272C587.157 23.496 586.605 25.136 585.501 26.192C584.397 27.264 582.749 27.8 580.557 27.8C579.357 27.8 578.213 27.632 577.125 27.296C576.037 26.976 575.157 26.512 574.485 25.904L575.589 24.128C576.181 24.64 576.909 25.04 577.773 25.328C578.653 25.632 579.557 25.784 580.485 25.784C581.973 25.784 583.069 25.432 583.773 24.728C584.493 24.024 584.853 22.952 584.853 21.512V20.504C584.309 21.16 583.637 21.656 582.837 21.992C582.053 22.312 581.197 22.472 580.269 22.472C579.053 22.472 577.949 22.216 576.957 21.704C575.981 21.176 575.213 20.448 574.653 19.52C574.093 18.576 573.813 17.504 573.813 16.304C573.813 15.104 574.093 14.04 574.653 13.112C575.213 12.168 575.981 11.44 576.957 10.928C577.949 10.416 579.053 10.16 580.269 10.16C581.229 10.16 582.117 10.336 582.933 10.688C583.765 11.04 584.445 11.56 584.973 12.248V10.28H587.157ZM580.533 20.456C581.365 20.456 582.109 20.28 582.765 19.928C583.437 19.576 583.957 19.088 584.325 18.464C584.709 17.824 584.901 17.104 584.901 16.304C584.901 15.072 584.493 14.08 583.677 13.328C582.861 12.56 581.813 12.176 580.533 12.176C579.237 12.176 578.181 12.56 577.365 13.328C576.549 14.08 576.141 15.072 576.141 16.304C576.141 17.104 576.325 17.824 576.693 18.464C577.077 19.088 577.597 19.576 578.253 19.928C578.925 20.28 579.685 20.456 580.533 20.456ZM598.351 10.16C599.967 10.16 601.247 10.632 602.191 11.576C603.151 12.504 603.631 13.872 603.631 15.68V23H601.327V15.944C601.327 14.712 601.031 13.784 600.439 13.16C599.847 12.536 598.999 12.224 597.895 12.224C596.647 12.224 595.663 12.592 594.943 13.328C594.223 14.048 593.863 15.088 593.863 16.448V23H591.559V10.28H593.767V12.2C594.231 11.544 594.855 11.04 595.639 10.688C596.439 10.336 597.343 10.16 598.351 10.16ZM618.972 10.16C620.732 10.16 622.076 10.592 623.004 11.456C623.948 12.32 624.42 13.608 624.42 15.32V23H622.236V21.32C621.852 21.912 621.3 22.368 620.58 22.688C619.876 22.992 619.036 23.144 618.06 23.144C616.636 23.144 615.492 22.8 614.628 22.112C613.78 21.424 613.356 20.52 613.356 19.4C613.356 18.28 613.764 17.384 614.58 16.712C615.396 16.024 616.692 15.68 618.468 15.68H622.116V15.224C622.116 14.232 621.828 13.472 621.252 12.944C620.676 12.416 619.828 12.152 618.708 12.152C617.956 12.152 617.22 12.28 616.5 12.536C615.78 12.776 615.172 13.104 614.676 13.52L613.716 11.792C614.372 11.264 615.156 10.864 616.068 10.592C616.98 10.304 617.948 10.16 618.972 10.16ZM618.444 21.368C619.324 21.368 620.084 21.176 620.724 20.792C621.364 20.392 621.828 19.832 622.116 19.112V17.336H618.564C616.612 17.336 615.636 17.992 615.636 19.304C615.636 19.944 615.884 20.448 616.38 20.816C616.876 21.184 617.564 21.368 618.444 21.368ZM635.476 10.16C637.092 10.16 638.372 10.632 639.316 11.576C640.276 12.504 640.756 13.872 640.756 15.68V23H638.452V15.944C638.452 14.712 638.156 13.784 637.564 13.16C636.972 12.536 636.124 12.224 635.02 12.224C633.772 12.224 632.788 12.592 632.068 13.328C631.348 14.048 630.988 15.088 630.988 16.448V23H628.684V10.28H630.892V12.2C631.356 11.544 631.98 11.04 632.764 10.688C633.564 10.336 634.468 10.16 635.476 10.16ZM657.09 5.192V23H654.882V20.984C654.37 21.688 653.722 22.224 652.938 22.592C652.154 22.96 651.29 23.144 650.346 23.144C649.114 23.144 648.01 22.872 647.034 22.328C646.058 21.784 645.29 21.024 644.73 20.048C644.186 19.056 643.914 17.92 643.914 16.64C643.914 15.36 644.186 14.232 644.73 13.256C645.29 12.28 646.058 11.52 647.034 10.976C648.01 10.432 649.114 10.16 650.346 10.16C651.258 10.16 652.098 10.336 652.866 10.688C653.634 11.024 654.274 11.528 654.786 12.2V5.192H657.09ZM650.538 21.128C651.338 21.128 652.066 20.944 652.722 20.576C653.378 20.192 653.89 19.664 654.258 18.992C654.626 18.304 654.81 17.52 654.81 16.64C654.81 15.76 654.626 14.984 654.258 14.312C653.89 13.624 653.378 13.096 652.722 12.728C652.066 12.36 651.338 12.176 650.538 12.176C649.722 12.176 648.986 12.36 648.33 12.728C647.69 13.096 647.178 13.624 646.794 14.312C646.426 14.984 646.242 15.76 646.242 16.64C646.242 17.52 646.426 18.304 646.794 18.992C647.178 19.664 647.69 20.192 648.33 20.576C648.986 20.944 649.722 21.128 650.538 21.128ZM668.231 6.2H675.311C677.087 6.2 678.663 6.552 680.039 7.256C681.415 7.96 682.479 8.952 683.231 10.232C683.999 11.496 684.383 12.952 684.383 14.6C684.383 16.248 683.999 17.712 683.231 18.992C682.479 20.256 681.415 21.24 680.039 21.944C678.663 22.648 677.087 23 675.311 23H668.231V6.2ZM675.167 20.912C676.527 20.912 677.719 20.648 678.743 20.12C679.783 19.592 680.583 18.856 681.143 17.912C681.703 16.952 681.983 15.848 681.983 14.6C681.983 13.352 681.703 12.256 681.143 11.312C680.583 10.352 679.783 9.608 678.743 9.08C677.719 8.552 676.527 8.288 675.167 8.288H670.631V20.912H675.167ZM699.219 16.712C699.219 16.888 699.203 17.12 699.171 17.408H688.851C688.995 18.528 689.483 19.432 690.315 20.12C691.163 20.792 692.211 21.128 693.459 21.128C694.979 21.128 696.203 20.616 697.131 19.592L698.403 21.08C697.827 21.752 697.107 22.264 696.243 22.616C695.395 22.968 694.443 23.144 693.387 23.144C692.043 23.144 690.851 22.872 689.811 22.328C688.771 21.768 687.963 20.992 687.387 20C686.827 19.008 686.547 17.888 686.547 16.64C686.547 15.408 686.819 14.296 687.363 13.304C687.923 12.312 688.683 11.544 689.643 11C690.619 10.44 691.715 10.16 692.931 10.16C694.147 10.16 695.227 10.44 696.171 11C697.131 11.544 697.875 12.312 698.403 13.304C698.947 14.296 699.219 15.432 699.219 16.712ZM692.931 12.104C691.827 12.104 690.899 12.44 690.147 13.112C689.411 13.784 688.979 14.664 688.851 15.752H697.011C696.883 14.68 696.443 13.808 695.691 13.136C694.955 12.448 694.035 12.104 692.931 12.104ZM713.44 10.28L707.872 23H705.52L699.952 10.28H702.352L706.72 20.48L711.184 10.28H713.44ZM726.735 16.712C726.735 16.888 726.719 17.12 726.687 17.408H716.367C716.511 18.528 716.999 19.432 717.831 20.12C718.679 20.792 719.727 21.128 720.975 21.128C722.495 21.128 723.719 20.616 724.647 19.592L725.919 21.08C725.343 21.752 724.623 22.264 723.759 22.616C722.911 22.968 721.959 23.144 720.903 23.144C719.559 23.144 718.367 22.872 717.327 22.328C716.287 21.768 715.479 20.992 714.903 20C714.343 19.008 714.063 17.888 714.063 16.64C714.063 15.408 714.335 14.296 714.879 13.304C715.439 12.312 716.199 11.544 717.159 11C718.135 10.44 719.231 10.16 720.447 10.16C721.663 10.16 722.743 10.44 723.687 11C724.647 11.544 725.391 12.312 725.919 13.304C726.463 14.296 726.735 15.432 726.735 16.712ZM720.447 12.104C719.343 12.104 718.415 12.44 717.663 13.112C716.927 13.784 716.495 14.664 716.367 15.752H724.527C724.399 14.68 723.959 13.808 723.207 13.136C722.471 12.448 721.551 12.104 720.447 12.104ZM729.934 5.192H732.238V23H729.934V5.192ZM742.085 23.144C740.821 23.144 739.685 22.864 738.677 22.304C737.669 21.744 736.877 20.976 736.301 20C735.741 19.008 735.461 17.888 735.461 16.64C735.461 15.392 735.741 14.28 736.301 13.304C736.877 12.312 737.669 11.544 738.677 11C739.685 10.44 740.821 10.16 742.085 10.16C743.349 10.16 744.477 10.44 745.469 11C746.477 11.544 747.261 12.312 747.821 13.304C748.397 14.28 748.685 15.392 748.685 16.64C748.685 17.888 748.397 19.008 747.821 20C747.261 20.976 746.477 21.744 745.469 22.304C744.477 22.864 743.349 23.144 742.085 23.144ZM742.085 21.128C742.901 21.128 743.629 20.944 744.269 20.576C744.925 20.192 745.437 19.664 745.805 18.992C746.173 18.304 746.357 17.52 746.357 16.64C746.357 15.76 746.173 14.984 745.805 14.312C745.437 13.624 744.925 13.096 744.269 12.728C743.629 12.36 742.901 12.176 742.085 12.176C741.269 12.176 740.533 12.36 739.877 12.728C739.237 13.096 738.725 13.624 738.341 14.312C737.973 14.984 737.789 15.76 737.789 16.64C737.789 17.52 737.973 18.304 738.341 18.992C738.725 19.664 739.237 20.192 739.877 20.576C740.533 20.944 741.269 21.128 742.085 21.128ZM758.616 10.16C759.848 10.16 760.952 10.432 761.928 10.976C762.904 11.52 763.664 12.28 764.208 13.256C764.768 14.232 765.048 15.36 765.048 16.64C765.048 17.92 764.768 19.056 764.208 20.048C763.664 21.024 762.904 21.784 761.928 22.328C760.952 22.872 759.848 23.144 758.616 23.144C757.704 23.144 756.864 22.968 756.096 22.616C755.344 22.264 754.704 21.752 754.176 21.08V27.656H751.872V10.28H754.08V12.296C754.592 11.592 755.24 11.064 756.023 10.712C756.808 10.344 757.672 10.16 758.616 10.16ZM758.424 21.128C759.24 21.128 759.968 20.944 760.608 20.576C761.264 20.192 761.776 19.664 762.144 18.992C762.528 18.304 762.72 17.52 762.72 16.64C762.72 15.76 762.528 14.984 762.144 14.312C761.776 13.624 761.264 13.096 760.608 12.728C759.968 12.36 759.24 12.176 758.424 12.176C757.624 12.176 756.896 12.368 756.24 12.752C755.6 13.12 755.088 13.64 754.704 14.312C754.336 14.984 754.152 15.76 754.152 16.64C754.152 17.52 754.336 18.304 754.704 18.992C755.072 19.664 755.584 20.192 756.24 20.576C756.896 20.944 757.624 21.128 758.424 21.128ZM784.143 10.16C785.743 10.16 787.007 10.624 787.935 11.552C788.879 12.48 789.351 13.856 789.351 15.68V23H787.047V15.944C787.047 14.712 786.759 13.784 786.183 13.16C785.623 12.536 784.815 12.224 783.759 12.224C782.591 12.224 781.663 12.592 780.975 13.328C780.287 14.048 779.943 15.088 779.943 16.448V23H777.639V15.944C777.639 14.712 777.351 13.784 776.775 13.16C776.215 12.536 775.407 12.224 774.351 12.224C773.183 12.224 772.255 12.592 771.567 13.328C770.879 14.048 770.535 15.088 770.535 16.448V23H768.231V10.28H770.439V12.176C770.903 11.52 771.511 11.024 772.263 10.688C773.015 10.336 773.871 10.16 774.831 10.16C775.823 10.16 776.703 10.36 777.471 10.76C778.239 11.16 778.831 11.744 779.247 12.512C779.727 11.776 780.391 11.2 781.239 10.784C782.103 10.368 783.071 10.16 784.143 10.16ZM805.157 16.712C805.157 16.888 805.141 17.12 805.109 17.408H794.789C794.933 18.528 795.421 19.432 796.253 20.12C797.101 20.792 798.149 21.128 799.397 21.128C800.917 21.128 802.141 20.616 803.069 19.592L804.341 21.08C803.765 21.752 803.045 22.264 802.181 22.616C801.333 22.968 800.381 23.144 799.325 23.144C797.981 23.144 796.789 22.872 795.749 22.328C794.709 21.768 793.901 20.992 793.325 20C792.765 19.008 792.485 17.888 792.485 16.64C792.485 15.408 792.757 14.296 793.301 13.304C793.861 12.312 794.621 11.544 795.581 11C796.557 10.44 797.653 10.16 798.869 10.16C800.085 10.16 801.165 10.44 802.109 11C803.069 11.544 803.813 12.312 804.341 13.304C804.885 14.296 805.157 15.432 805.157 16.712ZM798.869 12.104C797.765 12.104 796.837 12.44 796.085 13.112C795.349 13.784 794.917 14.664 794.789 15.752H802.949C802.821 14.68 802.381 13.808 801.629 13.136C800.893 12.448 799.973 12.104 798.869 12.104ZM815.148 10.16C816.764 10.16 818.044 10.632 818.988 11.576C819.948 12.504 820.428 13.872 820.428 15.68V23H818.124V15.944C818.124 14.712 817.828 13.784 817.236 13.16C816.644 12.536 815.796 12.224 814.692 12.224C813.444 12.224 812.46 12.592 811.74 13.328C811.02 14.048 810.66 15.088 810.66 16.448V23H808.356V10.28H810.564V12.2C811.028 11.544 811.652 11.04 812.436 10.688C813.236 10.336 814.14 10.16 815.148 10.16ZM831.844 22.256C831.508 22.544 831.092 22.768 830.596 22.928C830.1 23.072 829.588 23.144 829.06 23.144C827.78 23.144 826.788 22.8 826.084 22.112C825.38 21.424 825.028 20.44 825.028 19.16V12.176H822.868V10.28H825.028V7.496H827.332V10.28H830.98V12.176H827.332V19.064C827.332 19.752 827.5 20.28 827.836 20.648C828.188 21.016 828.684 21.2 829.324 21.2C830.028 21.2 830.628 21 831.124 20.6L831.844 22.256Z" fill="black"/>
<path d="M772.944 457L772.92 444.76L766.848 454.96H765.744L759.672 444.832V457H757.368V440.2H759.336L766.344 452.008L773.256 440.2H775.224L775.248 457H772.944ZM784.586 444.16C786.346 444.16 787.69 444.592 788.618 445.456C789.562 446.32 790.034 447.608 790.034 449.32V457H787.85V455.32C787.466 455.912 786.914 456.368 786.194 456.688C785.49 456.992 784.65 457.144 783.674 457.144C782.25 457.144 781.106 456.8 780.242 456.112C779.394 455.424 778.97 454.52 778.97 453.4C778.97 452.28 779.378 451.384 780.194 450.712C781.01 450.024 782.306 449.68 784.082 449.68H787.73V449.224C787.73 448.232 787.442 447.472 786.866 446.944C786.29 446.416 785.442 446.152 784.322 446.152C783.57 446.152 782.834 446.28 782.114 446.536C781.394 446.776 780.786 447.104 780.29 447.52L779.33 445.792C779.986 445.264 780.77 444.864 781.682 444.592C782.594 444.304 783.562 444.16 784.586 444.16ZM784.058 455.368C784.938 455.368 785.698 455.176 786.338 454.792C786.978 454.392 787.442 453.832 787.73 453.112V451.336H784.178C782.226 451.336 781.25 451.992 781.25 453.304C781.25 453.944 781.498 454.448 781.994 454.816C782.49 455.184 783.178 455.368 784.058 455.368ZM796.505 446.416C796.905 445.68 797.497 445.12 798.281 444.736C799.065 444.352 800.017 444.16 801.137 444.16V446.392C801.009 446.376 800.833 446.368 800.609 446.368C799.361 446.368 798.377 446.744 797.657 447.496C796.953 448.232 796.601 449.288 796.601 450.664V457H794.297V444.28H796.505V446.416ZM808.921 451.072L806.281 453.52V457H803.977V439.192H806.281V450.616L813.217 444.28H816.001L810.649 449.536L816.529 457H813.697L808.921 451.072ZM829.723 450.712C829.723 450.888 829.707 451.12 829.675 451.408H819.355C819.499 452.528 819.987 453.432 820.819 454.12C821.667 454.792 822.715 455.128 823.963 455.128C825.483 455.128 826.707 454.616 827.635 453.592L828.907 455.08C828.331 455.752 827.611 456.264 826.747 456.616C825.899 456.968 824.947 457.144 823.891 457.144C822.547 457.144 821.355 456.872 820.315 456.328C819.275 455.768 818.467 454.992 817.891 454C817.331 453.008 817.051 451.888 817.051 450.64C817.051 449.408 817.323 448.296 817.867 447.304C818.427 446.312 819.187 445.544 820.147 445C821.123 444.44 822.219 444.16 823.435 444.16C824.651 444.16 825.731 444.44 826.675 445C827.635 445.544 828.379 446.312 828.907 447.304C829.451 448.296 829.723 449.432 829.723 450.712ZM823.435 446.104C822.331 446.104 821.403 446.44 820.651 447.112C819.915 447.784 819.483 448.664 819.355 449.752H827.515C827.387 448.68 826.947 447.808 826.195 447.136C825.459 446.448 824.539 446.104 823.435 446.104ZM840.074 456.256C839.738 456.544 839.322 456.768 838.826 456.928C838.33 457.072 837.818 457.144 837.29 457.144C836.01 457.144 835.018 456.8 834.314 456.112C833.61 455.424 833.258 454.44 833.258 453.16V446.176H831.098V444.28H833.258V441.496H835.562V444.28H839.21V446.176H835.562V453.064C835.562 453.752 835.73 454.28 836.066 454.648C836.418 455.016 836.914 455.2 837.554 455.2C838.258 455.2 838.858 455 839.354 454.6L840.074 456.256ZM842.86 444.28H845.164V457H842.86V444.28ZM844.012 441.832C843.564 441.832 843.188 441.688 842.884 441.4C842.596 441.112 842.452 440.76 842.452 440.344C842.452 439.928 842.596 439.576 842.884 439.288C843.188 438.984 843.564 438.832 844.012 438.832C844.46 438.832 844.828 438.976 845.116 439.264C845.42 439.536 845.572 439.88 845.572 440.296C845.572 440.728 845.42 441.096 845.116 441.4C844.828 441.688 844.46 441.832 844.012 441.832ZM856.355 444.16C857.971 444.16 859.251 444.632 860.195 445.576C861.155 446.504 861.635 447.872 861.635 449.68V457H859.331V449.944C859.331 448.712 859.035 447.784 858.443 447.16C857.851 446.536 857.003 446.224 855.899 446.224C854.651 446.224 853.667 446.592 852.947 447.328C852.227 448.048 851.867 449.088 851.867 450.448V457H849.563V444.28H851.771V446.2C852.235 445.544 852.859 445.04 853.643 444.688C854.443 444.336 855.347 444.16 856.355 444.16ZM878.137 444.28V455.272C878.137 457.496 877.585 459.136 876.481 460.192C875.377 461.264 873.729 461.8 871.537 461.8C870.337 461.8 869.193 461.632 868.105 461.296C867.017 460.976 866.137 460.512 865.465 459.904L866.569 458.128C867.161 458.64 867.889 459.04 868.753 459.328C869.633 459.632 870.537 459.784 871.465 459.784C872.953 459.784 874.049 459.432 874.753 458.728C875.473 458.024 875.833 456.952 875.833 455.512V454.504C875.289 455.16 874.617 455.656 873.817 455.992C873.033 456.312 872.177 456.472 871.249 456.472C870.033 456.472 868.929 456.216 867.937 455.704C866.961 455.176 866.193 454.448 865.633 453.52C865.073 452.576 864.793 451.504 864.793 450.304C864.793 449.104 865.073 448.04 865.633 447.112C866.193 446.168 866.961 445.44 867.937 444.928C868.929 444.416 870.033 444.16 871.249 444.16C872.209 444.16 873.097 444.336 873.913 444.688C874.745 445.04 875.425 445.56 875.953 446.248V444.28H878.137ZM871.513 454.456C872.345 454.456 873.089 454.28 873.745 453.928C874.417 453.576 874.937 453.088 875.305 452.464C875.689 451.824 875.881 451.104 875.881 450.304C875.881 449.072 875.473 448.08 874.657 447.328C873.841 446.56 872.793 446.176 871.513 446.176C870.217 446.176 869.161 446.56 868.345 447.328C867.529 448.08 867.121 449.072 867.121 450.304C867.121 451.104 867.305 451.824 867.673 452.464C868.057 453.088 868.577 453.576 869.233 453.928C869.905 454.28 870.665 454.456 871.513 454.456ZM893.641 440.944C892.265 440.944 891.577 441.688 891.577 443.176V444.28H895.273V446.176H891.625V457H889.321V446.176H887.161V444.28H889.321V443.152C889.321 441.888 889.689 440.888 890.425 440.152C891.161 439.416 892.193 439.048 893.521 439.048C894.033 439.048 894.513 439.112 894.961 439.24C895.409 439.368 895.793 439.552 896.113 439.792L895.417 441.544C894.889 441.144 894.297 440.944 893.641 440.944ZM902.706 457.144C901.442 457.144 900.306 456.864 899.298 456.304C898.29 455.744 897.498 454.976 896.922 454C896.362 453.008 896.082 451.888 896.082 450.64C896.082 449.392 896.362 448.28 896.922 447.304C897.498 446.312 898.29 445.544 899.298 445C900.306 444.44 901.442 444.16 902.706 444.16C903.97 444.16 905.098 444.44 906.09 445C907.098 445.544 907.882 446.312 908.442 447.304C909.018 448.28 909.306 449.392 909.306 450.64C909.306 451.888 909.018 453.008 908.442 454C907.882 454.976 907.098 455.744 906.09 456.304C905.098 456.864 903.97 457.144 902.706 457.144ZM902.706 455.128C903.522 455.128 904.25 454.944 904.89 454.576C905.546 454.192 906.058 453.664 906.426 452.992C906.794 452.304 906.978 451.52 906.978 450.64C906.978 449.76 906.794 448.984 906.426 448.312C906.058 447.624 905.546 447.096 904.89 446.728C904.25 446.36 903.522 446.176 902.706 446.176C901.89 446.176 901.154 446.36 900.498 446.728C899.858 447.096 899.346 447.624 898.962 448.312C898.594 448.984 898.41 449.76 898.41 450.64C898.41 451.52 898.594 452.304 898.962 452.992C899.346 453.664 899.858 454.192 900.498 454.576C901.154 454.944 901.89 455.128 902.706 455.128ZM914.701 446.416C915.101 445.68 915.693 445.12 916.477 444.736C917.261 444.352 918.213 444.16 919.333 444.16V446.392C919.205 446.376 919.029 446.368 918.805 446.368C917.557 446.368 916.573 446.744 915.853 447.496C915.149 448.232 914.797 449.288 914.797 450.664V457H912.493V444.28H914.701V446.416ZM738.922 469.2H741.322V483.912H750.418V486H738.922V469.2ZM764.168 479.712C764.168 479.888 764.152 480.12 764.12 480.408H753.8C753.944 481.528 754.432 482.432 755.264 483.12C756.112 483.792 757.16 484.128 758.408 484.128C759.928 484.128 761.152 483.616 762.08 482.592L763.352 484.08C762.776 484.752 762.056 485.264 761.192 485.616C760.344 485.968 759.392 486.144 758.336 486.144C756.992 486.144 755.8 485.872 754.76 485.328C753.72 484.768 752.912 483.992 752.336 483C751.776 482.008 751.496 480.888 751.496 479.64C751.496 478.408 751.768 477.296 752.312 476.304C752.872 475.312 753.632 474.544 754.592 474C755.568 473.44 756.664 473.16 757.88 473.16C759.096 473.16 760.176 473.44 761.12 474C762.08 474.544 762.824 475.312 763.352 476.304C763.896 477.296 764.168 478.432 764.168 479.712ZM757.88 475.104C756.776 475.104 755.848 475.44 755.096 476.112C754.36 476.784 753.928 477.664 753.8 478.752H761.96C761.832 477.68 761.392 476.808 760.64 476.136C759.904 475.448 758.984 475.104 757.88 475.104ZM771.648 473.16C773.408 473.16 774.752 473.592 775.68 474.456C776.624 475.32 777.096 476.608 777.096 478.32V486H774.912V484.32C774.528 484.912 773.976 485.368 773.256 485.688C772.552 485.992 771.712 486.144 770.736 486.144C769.312 486.144 768.168 485.8 767.304 485.112C766.456 484.424 766.032 483.52 766.032 482.4C766.032 481.28 766.44 480.384 767.256 479.712C768.072 479.024 769.368 478.68 771.144 478.68H774.792V478.224C774.792 477.232 774.504 476.472 773.928 475.944C773.352 475.416 772.504 475.152 771.384 475.152C770.632 475.152 769.896 475.28 769.176 475.536C768.456 475.776 767.848 476.104 767.352 476.52L766.392 474.792C767.048 474.264 767.832 473.864 768.744 473.592C769.656 473.304 770.624 473.16 771.648 473.16ZM771.12 484.368C772 484.368 772.76 484.176 773.4 483.792C774.04 483.392 774.504 482.832 774.792 482.112V480.336H771.24C769.288 480.336 768.312 480.992 768.312 482.304C768.312 482.944 768.56 483.448 769.056 483.816C769.552 484.184 770.24 484.368 771.12 484.368ZM793.43 468.192V486H791.222V483.984C790.71 484.688 790.062 485.224 789.278 485.592C788.494 485.96 787.63 486.144 786.686 486.144C785.454 486.144 784.35 485.872 783.374 485.328C782.398 484.784 781.63 484.024 781.07 483.048C780.526 482.056 780.254 480.92 780.254 479.64C780.254 478.36 780.526 477.232 781.07 476.256C781.63 475.28 782.398 474.52 783.374 473.976C784.35 473.432 785.454 473.16 786.686 473.16C787.598 473.16 788.438 473.336 789.206 473.688C789.974 474.024 790.614 474.528 791.126 475.2V468.192H793.43ZM786.878 484.128C787.678 484.128 788.406 483.944 789.062 483.576C789.718 483.192 790.23 482.664 790.598 481.992C790.966 481.304 791.15 480.52 791.15 479.64C791.15 478.76 790.966 477.984 790.598 477.312C790.23 476.624 789.718 476.096 789.062 475.728C788.406 475.36 787.678 475.176 786.878 475.176C786.062 475.176 785.326 475.36 784.67 475.728C784.03 476.096 783.518 476.624 783.134 477.312C782.766 477.984 782.582 478.76 782.582 479.64C782.582 480.52 782.766 481.304 783.134 481.992C783.518 482.664 784.03 483.192 784.67 483.576C785.326 483.944 786.062 484.128 786.878 484.128ZM816.211 477.504H818.515V484.056C817.683 484.744 816.715 485.272 815.611 485.64C814.507 486.008 813.355 486.192 812.155 486.192C810.459 486.192 808.931 485.824 807.571 485.088C806.211 484.336 805.139 483.312 804.355 482.016C803.587 480.704 803.203 479.232 803.203 477.6C803.203 475.968 803.587 474.496 804.355 473.184C805.139 471.872 806.211 470.848 807.571 470.112C808.947 469.376 810.491 469.008 812.203 469.008C813.547 469.008 814.763 469.232 815.851 469.68C816.955 470.112 817.891 470.752 818.659 471.6L817.171 473.088C815.827 471.792 814.203 471.144 812.299 471.144C811.019 471.144 809.867 471.424 808.843 471.984C807.835 472.528 807.043 473.296 806.467 474.288C805.891 475.264 805.603 476.368 805.603 477.6C805.603 478.816 805.891 479.92 806.467 480.912C807.043 481.888 807.835 482.656 808.843 483.216C809.867 483.776 811.011 484.056 812.275 484.056C813.779 484.056 815.091 483.696 816.211 482.976V477.504ZM834.27 479.712C834.27 479.888 834.254 480.12 834.222 480.408H823.902C824.046 481.528 824.534 482.432 825.366 483.12C826.214 483.792 827.262 484.128 828.51 484.128C830.03 484.128 831.254 483.616 832.182 482.592L833.454 484.08C832.878 484.752 832.158 485.264 831.294 485.616C830.446 485.968 829.494 486.144 828.438 486.144C827.094 486.144 825.902 485.872 824.862 485.328C823.822 484.768 823.014 483.992 822.438 483C821.878 482.008 821.598 480.888 821.598 479.64C821.598 478.408 821.87 477.296 822.414 476.304C822.974 475.312 823.734 474.544 824.694 474C825.67 473.44 826.766 473.16 827.982 473.16C829.198 473.16 830.278 473.44 831.222 474C832.182 474.544 832.926 475.312 833.454 476.304C833.998 477.296 834.27 478.432 834.27 479.712ZM827.982 475.104C826.878 475.104 825.95 475.44 825.198 476.112C824.462 476.784 824.03 477.664 823.902 478.752H832.062C831.934 477.68 831.494 476.808 830.742 476.136C830.006 475.448 829.086 475.104 827.982 475.104ZM844.261 473.16C845.877 473.16 847.157 473.632 848.101 474.576C849.061 475.504 849.541 476.872 849.541 478.68V486H847.237V478.944C847.237 477.712 846.941 476.784 846.349 476.16C845.757 475.536 844.909 475.224 843.805 475.224C842.557 475.224 841.573 475.592 840.853 476.328C840.133 477.048 839.773 478.088 839.773 479.448V486H837.469V473.28H839.677V475.2C840.141 474.544 840.765 474.04 841.549 473.688C842.349 473.336 843.253 473.16 844.261 473.16ZM865.371 479.712C865.371 479.888 865.355 480.12 865.323 480.408H855.003C855.147 481.528 855.635 482.432 856.467 483.12C857.315 483.792 858.363 484.128 859.611 484.128C861.131 484.128 862.355 483.616 863.283 482.592L864.555 484.08C863.979 484.752 863.259 485.264 862.395 485.616C861.547 485.968 860.595 486.144 859.539 486.144C858.195 486.144 857.003 485.872 855.963 485.328C854.923 484.768 854.115 483.992 853.539 483C852.979 482.008 852.699 480.888 852.699 479.64C852.699 478.408 852.971 477.296 853.515 476.304C854.075 475.312 854.835 474.544 855.795 474C856.771 473.44 857.867 473.16 859.083 473.16C860.299 473.16 861.379 473.44 862.323 474C863.283 474.544 864.027 475.312 864.555 476.304C865.099 477.296 865.371 478.432 865.371 479.712ZM859.083 475.104C857.979 475.104 857.051 475.44 856.299 476.112C855.563 476.784 855.131 477.664 855.003 478.752H863.163C863.035 477.68 862.595 476.808 861.843 476.136C861.107 475.448 860.187 475.104 859.083 475.104ZM870.779 475.416C871.179 474.68 871.771 474.12 872.555 473.736C873.339 473.352 874.291 473.16 875.411 473.16V475.392C875.283 475.376 875.107 475.368 874.883 475.368C873.635 475.368 872.651 475.744 871.931 476.496C871.227 477.232 870.875 478.288 870.875 479.664V486H868.571V473.28H870.779V475.416ZM882.859 473.16C884.619 473.16 885.963 473.592 886.891 474.456C887.835 475.32 888.307 476.608 888.307 478.32V486H886.123V484.32C885.739 484.912 885.187 485.368 884.467 485.688C883.763 485.992 882.923 486.144 881.947 486.144C880.523 486.144 879.379 485.8 878.515 485.112C877.667 484.424 877.243 483.52 877.243 482.4C877.243 481.28 877.651 480.384 878.467 479.712C879.283 479.024 880.579 478.68 882.355 478.68H886.003V478.224C886.003 477.232 885.715 476.472 885.139 475.944C884.563 475.416 883.715 475.152 882.595 475.152C881.843 475.152 881.107 475.28 880.387 475.536C879.667 475.776 879.059 476.104 878.563 476.52L877.603 474.792C878.259 474.264 879.043 473.864 879.955 473.592C880.867 473.304 881.835 473.16 882.859 473.16ZM882.331 484.368C883.211 484.368 883.971 484.176 884.611 483.792C885.251 483.392 885.715 482.832 886.003 482.112V480.336H882.451C880.499 480.336 879.523 480.992 879.523 482.304C879.523 482.944 879.771 483.448 880.267 483.816C880.763 484.184 881.451 484.368 882.331 484.368ZM899.723 485.256C899.387 485.544 898.971 485.768 898.475 485.928C897.979 486.072 897.467 486.144 896.939 486.144C895.659 486.144 894.667 485.8 893.963 485.112C893.259 484.424 892.907 483.44 892.907 482.16V475.176H890.747V473.28H892.907V470.496H895.211V473.28H898.859V475.176H895.211V482.064C895.211 482.752 895.379 483.28 895.715 483.648C896.067 484.016 896.563 484.2 897.203 484.2C897.907 484.2 898.507 484 899.003 483.6L899.723 485.256ZM902.508 473.28H904.812V486H902.508V473.28ZM903.66 470.832C903.212 470.832 902.836 470.688 902.532 470.4C902.244 470.112 902.1 469.76 902.1 469.344C902.1 468.928 902.244 468.576 902.532 468.288C902.836 467.984 903.212 467.832 903.66 467.832C904.108 467.832 904.476 467.976 904.764 468.264C905.068 468.536 905.22 468.88 905.22 469.296C905.22 469.728 905.068 470.096 904.764 470.4C904.476 470.688 904.108 470.832 903.66 470.832ZM914.659 486.144C913.395 486.144 912.259 485.864 911.251 485.304C910.243 484.744 909.451 483.976 908.875 483C908.315 482.008 908.035 480.888 908.035 479.64C908.035 478.392 908.315 477.28 908.875 476.304C909.451 475.312 910.243 474.544 911.251 474C912.259 473.44 913.395 473.16 914.659 473.16C915.923 473.16 917.051 473.44 918.043 474C919.051 474.544 919.835 475.312 920.395 476.304C920.971 477.28 921.259 478.392 921.259 479.64C921.259 480.888 920.971 482.008 920.395 483C919.835 483.976 919.051 484.744 918.043 485.304C917.051 485.864 915.923 486.144 914.659 486.144ZM914.659 484.128C915.475 484.128 916.203 483.944 916.843 483.576C917.499 483.192 918.011 482.664 918.379 481.992C918.747 481.304 918.931 480.52 918.931 479.64C918.931 478.76 918.747 477.984 918.379 477.312C918.011 476.624 917.499 476.096 916.843 475.728C916.203 475.36 915.475 475.176 914.659 475.176C913.843 475.176 913.107 475.36 912.451 475.728C911.811 476.096 911.299 476.624 910.915 477.312C910.547 477.984 910.363 478.76 910.363 479.64C910.363 480.52 910.547 481.304 910.915 481.992C911.299 482.664 911.811 483.192 912.451 483.576C913.107 483.944 913.843 484.128 914.659 484.128ZM931.238 473.16C932.854 473.16 934.134 473.632 935.078 474.576C936.038 475.504 936.518 476.872 936.518 478.68V486H934.214V478.944C934.214 477.712 933.918 476.784 933.326 476.16C932.734 475.536 931.886 475.224 930.782 475.224C929.534 475.224 928.55 475.592 927.83 476.328C927.11 477.048 926.75 478.088 926.75 479.448V486H924.446V473.28H926.654V475.2C927.118 474.544 927.742 474.04 928.526 473.688C929.326 473.336 930.23 473.16 931.238 473.16Z" fill="black"/>
</svg>
